<svg xmlns="http://www.w3.org/2000/svg" height="40" viewBox="0 96 960 960" width="40"><path d="M479.883 866.74q-18.55 0-31.253-12.787-12.703-12.786-12.703-31.286V620.073H233.333q-18.5 0-31.286-12.82-12.787-12.82-12.787-31.37t12.787-31.253q12.786-12.703 31.286-12.703h202.594V329.333q0-18.5 12.82-31.286 12.82-12.787 31.37-12.787t31.253 12.787q12.703 12.786 12.703 31.286v202.594h202.594q18.5 0 31.286 12.82 12.787 12.82 12.787 31.37t-12.787 31.253q-12.786 12.703-31.286 12.703H524.073v202.594q0 18.5-12.82 31.286-12.82 12.787-31.37 12.787Z"/></svg>